<mxfile host="app.diagrams.net" agent="Mozilla/5.0 (Windows NT 10.0; Win64; x64) AppleWebKit/537.36 (KHTML, like Gecko) Chrome/134.0.0.0 Safari/537.36" version="26.2.8">
  <diagram name="Page-1" id="1lsD67xNd5mQFtNdDmkv">
    <mxGraphModel dx="1667" dy="743" grid="1" gridSize="10" guides="1" tooltips="1" connect="1" arrows="1" fold="1" page="1" pageScale="1" pageWidth="200000" pageHeight="200000" math="0" shadow="0">
      <root>
        <mxCell id="0" />
        <mxCell id="1" parent="0" />
        <mxCell id="NSTFLsDqyqvBZdLpAje1-4" style="rounded=0;orthogonalLoop=1;jettySize=auto;html=1;endArrow=none;startFill=0;" parent="1" source="NSTFLsDqyqvBZdLpAje1-1" target="NSTFLsDqyqvBZdLpAje1-3" edge="1">
          <mxGeometry relative="1" as="geometry" />
        </mxCell>
        <mxCell id="NSTFLsDqyqvBZdLpAje1-17" style="edgeStyle=none;shape=connector;rounded=0;orthogonalLoop=1;jettySize=auto;html=1;entryX=0.5;entryY=1;entryDx=0;entryDy=0;strokeColor=default;align=center;verticalAlign=middle;fontFamily=Helvetica;fontSize=11;fontColor=default;labelBackgroundColor=default;startFill=0;endArrow=oval;endFill=0;" parent="1" source="NSTFLsDqyqvBZdLpAje1-1" target="NSTFLsDqyqvBZdLpAje1-15" edge="1">
          <mxGeometry relative="1" as="geometry" />
        </mxCell>
        <mxCell id="NSTFLsDqyqvBZdLpAje1-18" style="edgeStyle=none;shape=connector;rounded=0;orthogonalLoop=1;jettySize=auto;html=1;entryX=0.5;entryY=0;entryDx=0;entryDy=0;strokeColor=default;align=center;verticalAlign=middle;fontFamily=Helvetica;fontSize=11;fontColor=default;labelBackgroundColor=default;startFill=0;endArrow=oval;endFill=0;" parent="1" source="NSTFLsDqyqvBZdLpAje1-1" target="NSTFLsDqyqvBZdLpAje1-16" edge="1">
          <mxGeometry relative="1" as="geometry" />
        </mxCell>
        <mxCell id="NSTFLsDqyqvBZdLpAje1-20" style="edgeStyle=none;shape=connector;rounded=0;orthogonalLoop=1;jettySize=auto;html=1;entryX=1;entryY=0.5;entryDx=0;entryDy=0;strokeColor=default;align=center;verticalAlign=middle;fontFamily=Helvetica;fontSize=11;fontColor=default;labelBackgroundColor=default;startFill=0;endArrow=oval;endFill=0;" parent="1" source="NSTFLsDqyqvBZdLpAje1-1" target="NSTFLsDqyqvBZdLpAje1-19" edge="1">
          <mxGeometry relative="1" as="geometry" />
        </mxCell>
        <mxCell id="NSTFLsDqyqvBZdLpAje1-1" value="BAG ITEM" style="rounded=0;whiteSpace=wrap;html=1;" parent="1" vertex="1">
          <mxGeometry x="450" y="925" width="120" height="60" as="geometry" />
        </mxCell>
        <mxCell id="NSTFLsDqyqvBZdLpAje1-6" style="edgeStyle=none;shape=connector;rounded=0;orthogonalLoop=1;jettySize=auto;html=1;entryX=1;entryY=0.5;entryDx=0;entryDy=0;strokeColor=default;align=center;verticalAlign=middle;fontFamily=Helvetica;fontSize=11;fontColor=default;labelBackgroundColor=default;startFill=0;endArrow=none;" parent="1" source="NSTFLsDqyqvBZdLpAje1-2" target="NSTFLsDqyqvBZdLpAje1-3" edge="1">
          <mxGeometry relative="1" as="geometry" />
        </mxCell>
        <mxCell id="NSTFLsDqyqvBZdLpAje1-24" style="edgeStyle=none;shape=connector;rounded=0;orthogonalLoop=1;jettySize=auto;html=1;entryX=0.5;entryY=1;entryDx=0;entryDy=0;strokeColor=default;align=center;verticalAlign=middle;fontFamily=Helvetica;fontSize=11;fontColor=default;labelBackgroundColor=default;startFill=0;endArrow=oval;endFill=1;" parent="1" source="NSTFLsDqyqvBZdLpAje1-2" target="NSTFLsDqyqvBZdLpAje1-23" edge="1">
          <mxGeometry relative="1" as="geometry" />
        </mxCell>
        <mxCell id="NSTFLsDqyqvBZdLpAje1-27" style="edgeStyle=none;shape=connector;rounded=0;orthogonalLoop=1;jettySize=auto;html=1;strokeColor=default;align=center;verticalAlign=middle;fontFamily=Helvetica;fontSize=11;fontColor=default;labelBackgroundColor=default;startFill=0;endArrow=oval;endFill=0;" parent="1" source="NSTFLsDqyqvBZdLpAje1-2" target="NSTFLsDqyqvBZdLpAje1-25" edge="1">
          <mxGeometry relative="1" as="geometry" />
        </mxCell>
        <mxCell id="NSTFLsDqyqvBZdLpAje1-28" style="edgeStyle=none;shape=connector;rounded=0;orthogonalLoop=1;jettySize=auto;html=1;entryX=0.5;entryY=1;entryDx=0;entryDy=0;strokeColor=default;align=center;verticalAlign=middle;fontFamily=Helvetica;fontSize=11;fontColor=default;labelBackgroundColor=default;startFill=0;endArrow=oval;endFill=0;" parent="1" source="NSTFLsDqyqvBZdLpAje1-2" target="NSTFLsDqyqvBZdLpAje1-26" edge="1">
          <mxGeometry relative="1" as="geometry" />
        </mxCell>
        <mxCell id="NSTFLsDqyqvBZdLpAje1-30" style="edgeStyle=none;shape=connector;rounded=0;orthogonalLoop=1;jettySize=auto;html=1;entryX=0;entryY=0.5;entryDx=0;entryDy=0;strokeColor=default;align=center;verticalAlign=middle;fontFamily=Helvetica;fontSize=11;fontColor=default;labelBackgroundColor=default;startFill=0;endArrow=oval;endFill=0;" parent="1" source="NSTFLsDqyqvBZdLpAje1-2" target="NSTFLsDqyqvBZdLpAje1-29" edge="1">
          <mxGeometry relative="1" as="geometry" />
        </mxCell>
        <mxCell id="NSTFLsDqyqvBZdLpAje1-32" style="edgeStyle=none;shape=connector;rounded=0;orthogonalLoop=1;jettySize=auto;html=1;entryX=0;entryY=0.25;entryDx=0;entryDy=0;strokeColor=default;align=center;verticalAlign=middle;fontFamily=Helvetica;fontSize=11;fontColor=default;labelBackgroundColor=default;startFill=0;endArrow=oval;endFill=0;" parent="1" source="NSTFLsDqyqvBZdLpAje1-2" target="NSTFLsDqyqvBZdLpAje1-31" edge="1">
          <mxGeometry relative="1" as="geometry" />
        </mxCell>
        <mxCell id="NSTFLsDqyqvBZdLpAje1-34" style="edgeStyle=none;shape=connector;rounded=0;orthogonalLoop=1;jettySize=auto;html=1;strokeColor=default;align=center;verticalAlign=middle;fontFamily=Helvetica;fontSize=11;fontColor=default;labelBackgroundColor=default;startFill=0;endArrow=oval;endFill=0;" parent="1" source="NSTFLsDqyqvBZdLpAje1-2" target="NSTFLsDqyqvBZdLpAje1-33" edge="1">
          <mxGeometry relative="1" as="geometry" />
        </mxCell>
        <mxCell id="NSTFLsDqyqvBZdLpAje1-36" style="edgeStyle=none;shape=connector;rounded=0;orthogonalLoop=1;jettySize=auto;html=1;entryX=1;entryY=1;entryDx=0;entryDy=0;strokeColor=default;align=center;verticalAlign=middle;fontFamily=Helvetica;fontSize=11;fontColor=default;labelBackgroundColor=default;startFill=0;endArrow=oval;endFill=0;" parent="1" source="NSTFLsDqyqvBZdLpAje1-2" target="NSTFLsDqyqvBZdLpAje1-35" edge="1">
          <mxGeometry relative="1" as="geometry" />
        </mxCell>
        <mxCell id="DNdd3FPELaN4UwUQye3--4" style="rounded=0;orthogonalLoop=1;jettySize=auto;html=1;entryX=0.5;entryY=1;entryDx=0;entryDy=0;endArrow=oval;endFill=0;" parent="1" source="NSTFLsDqyqvBZdLpAje1-2" target="DNdd3FPELaN4UwUQye3--3" edge="1">
          <mxGeometry relative="1" as="geometry" />
        </mxCell>
        <mxCell id="BkRy5oZixeSH2-onaAZ5-5" style="edgeStyle=orthogonalEdgeStyle;rounded=0;orthogonalLoop=1;jettySize=auto;html=1;entryX=0.5;entryY=1;entryDx=0;entryDy=0;endArrow=none;startFill=0;" parent="1" source="NSTFLsDqyqvBZdLpAje1-2" target="BkRy5oZixeSH2-onaAZ5-3" edge="1">
          <mxGeometry relative="1" as="geometry" />
        </mxCell>
        <mxCell id="NSTFLsDqyqvBZdLpAje1-2" value="BAG" style="rounded=0;whiteSpace=wrap;html=1;" parent="1" vertex="1">
          <mxGeometry x="970" y="925" width="120" height="60" as="geometry" />
        </mxCell>
        <mxCell id="NSTFLsDqyqvBZdLpAje1-3" value="Bag Composition" style="rhombus;whiteSpace=wrap;html=1;" parent="1" vertex="1">
          <mxGeometry x="750" y="920" width="140" height="70" as="geometry" />
        </mxCell>
        <mxCell id="NSTFLsDqyqvBZdLpAje1-62" style="edgeStyle=none;shape=connector;rounded=0;orthogonalLoop=1;jettySize=auto;html=1;entryX=1;entryY=0.5;entryDx=0;entryDy=0;strokeColor=default;align=center;verticalAlign=middle;fontFamily=Helvetica;fontSize=11;fontColor=default;labelBackgroundColor=default;startFill=0;endArrow=oval;endFill=1;" parent="1" source="NSTFLsDqyqvBZdLpAje1-7" target="NSTFLsDqyqvBZdLpAje1-61" edge="1">
          <mxGeometry relative="1" as="geometry" />
        </mxCell>
        <mxCell id="NSTFLsDqyqvBZdLpAje1-75" style="edgeStyle=none;shape=connector;rounded=0;orthogonalLoop=1;jettySize=auto;html=1;entryX=0;entryY=0.5;entryDx=0;entryDy=0;strokeColor=default;align=center;verticalAlign=middle;fontFamily=Helvetica;fontSize=11;fontColor=default;labelBackgroundColor=default;startFill=0;endArrow=oval;endFill=0;" parent="1" source="NSTFLsDqyqvBZdLpAje1-7" target="NSTFLsDqyqvBZdLpAje1-68" edge="1">
          <mxGeometry relative="1" as="geometry" />
        </mxCell>
        <mxCell id="NSTFLsDqyqvBZdLpAje1-76" style="edgeStyle=none;shape=connector;rounded=0;orthogonalLoop=1;jettySize=auto;html=1;entryX=0;entryY=0.5;entryDx=0;entryDy=0;strokeColor=default;align=center;verticalAlign=middle;fontFamily=Helvetica;fontSize=11;fontColor=default;labelBackgroundColor=default;startFill=0;endArrow=oval;endFill=0;" parent="1" source="NSTFLsDqyqvBZdLpAje1-7" target="NSTFLsDqyqvBZdLpAje1-69" edge="1">
          <mxGeometry relative="1" as="geometry" />
        </mxCell>
        <mxCell id="NSTFLsDqyqvBZdLpAje1-7" value="ESTABLISHMENT" style="rounded=0;whiteSpace=wrap;html=1;fontFamily=Helvetica;fontSize=11;fontColor=default;labelBackgroundColor=default;" parent="1" vertex="1">
          <mxGeometry x="970" y="1170" width="120" height="60" as="geometry" />
        </mxCell>
        <mxCell id="NSTFLsDqyqvBZdLpAje1-9" style="edgeStyle=none;shape=connector;rounded=0;orthogonalLoop=1;jettySize=auto;html=1;strokeColor=default;align=center;verticalAlign=middle;fontFamily=Helvetica;fontSize=11;fontColor=default;labelBackgroundColor=default;startFill=0;endArrow=none;" parent="1" source="NSTFLsDqyqvBZdLpAje1-8" target="NSTFLsDqyqvBZdLpAje1-7" edge="1">
          <mxGeometry relative="1" as="geometry" />
        </mxCell>
        <mxCell id="NSTFLsDqyqvBZdLpAje1-10" style="edgeStyle=none;shape=connector;rounded=0;orthogonalLoop=1;jettySize=auto;html=1;entryX=0.5;entryY=1;entryDx=0;entryDy=0;strokeColor=default;align=center;verticalAlign=middle;fontFamily=Helvetica;fontSize=11;fontColor=default;labelBackgroundColor=default;startFill=0;endArrow=none;" parent="1" source="NSTFLsDqyqvBZdLpAje1-8" target="NSTFLsDqyqvBZdLpAje1-2" edge="1">
          <mxGeometry relative="1" as="geometry" />
        </mxCell>
        <mxCell id="NSTFLsDqyqvBZdLpAje1-8" value="available bags" style="rhombus;whiteSpace=wrap;html=1;" parent="1" vertex="1">
          <mxGeometry x="960" y="1050" width="140" height="70" as="geometry" />
        </mxCell>
        <mxCell id="NSTFLsDqyqvBZdLpAje1-49" style="edgeStyle=none;shape=connector;rounded=0;orthogonalLoop=1;jettySize=auto;html=1;entryX=0.25;entryY=1;entryDx=0;entryDy=0;strokeColor=default;align=center;verticalAlign=middle;fontFamily=Helvetica;fontSize=11;fontColor=default;labelBackgroundColor=default;startFill=0;endArrow=oval;endFill=1;" parent="1" source="NSTFLsDqyqvBZdLpAje1-11" target="NSTFLsDqyqvBZdLpAje1-48" edge="1">
          <mxGeometry relative="1" as="geometry" />
        </mxCell>
        <mxCell id="NSTFLsDqyqvBZdLpAje1-55" style="edgeStyle=none;shape=connector;rounded=0;orthogonalLoop=1;jettySize=auto;html=1;entryX=1;entryY=0.5;entryDx=0;entryDy=0;strokeColor=default;align=center;verticalAlign=middle;fontFamily=Helvetica;fontSize=11;fontColor=default;labelBackgroundColor=default;startFill=0;endArrow=oval;endFill=0;" parent="1" source="NSTFLsDqyqvBZdLpAje1-11" target="NSTFLsDqyqvBZdLpAje1-47" edge="1">
          <mxGeometry relative="1" as="geometry" />
        </mxCell>
        <mxCell id="NSTFLsDqyqvBZdLpAje1-56" style="edgeStyle=none;shape=connector;rounded=0;orthogonalLoop=1;jettySize=auto;html=1;entryX=1;entryY=0.5;entryDx=0;entryDy=0;strokeColor=default;align=center;verticalAlign=middle;fontFamily=Helvetica;fontSize=11;fontColor=default;labelBackgroundColor=default;startFill=0;endArrow=oval;endFill=0;" parent="1" source="NSTFLsDqyqvBZdLpAje1-11" target="NSTFLsDqyqvBZdLpAje1-50" edge="1">
          <mxGeometry relative="1" as="geometry" />
        </mxCell>
        <mxCell id="NSTFLsDqyqvBZdLpAje1-59" style="edgeStyle=none;shape=connector;rounded=0;orthogonalLoop=1;jettySize=auto;html=1;entryX=0;entryY=0.5;entryDx=0;entryDy=0;strokeColor=default;align=center;verticalAlign=middle;fontFamily=Helvetica;fontSize=11;fontColor=default;labelBackgroundColor=default;startFill=0;endArrow=oval;endFill=0;" parent="1" source="NSTFLsDqyqvBZdLpAje1-11" target="NSTFLsDqyqvBZdLpAje1-53" edge="1">
          <mxGeometry relative="1" as="geometry" />
        </mxCell>
        <mxCell id="NSTFLsDqyqvBZdLpAje1-60" style="edgeStyle=none;shape=connector;rounded=0;orthogonalLoop=1;jettySize=auto;html=1;entryX=0;entryY=0.5;entryDx=0;entryDy=0;strokeColor=default;align=center;verticalAlign=middle;fontFamily=Helvetica;fontSize=11;fontColor=default;labelBackgroundColor=default;startFill=0;endArrow=oval;endFill=0;" parent="1" source="NSTFLsDqyqvBZdLpAje1-11" target="NSTFLsDqyqvBZdLpAje1-54" edge="1">
          <mxGeometry relative="1" as="geometry" />
        </mxCell>
        <mxCell id="NSTFLsDqyqvBZdLpAje1-11" value="USER" style="rounded=0;whiteSpace=wrap;html=1;" parent="1" vertex="1">
          <mxGeometry x="980" y="310" width="120" height="60" as="geometry" />
        </mxCell>
        <mxCell id="NSTFLsDqyqvBZdLpAje1-13" value="id" style="text;html=1;align=center;verticalAlign=middle;whiteSpace=wrap;rounded=0;fontFamily=Helvetica;fontSize=11;fontColor=default;labelBackgroundColor=default;" parent="1" vertex="1">
          <mxGeometry x="500" y="1030" width="60" height="30" as="geometry" />
        </mxCell>
        <mxCell id="NSTFLsDqyqvBZdLpAje1-14" style="edgeStyle=none;shape=connector;rounded=0;orthogonalLoop=1;jettySize=auto;html=1;entryX=0;entryY=0.5;entryDx=0;entryDy=0;strokeColor=default;align=center;verticalAlign=middle;fontFamily=Helvetica;fontSize=11;fontColor=default;labelBackgroundColor=default;startFill=0;endArrow=oval;endFill=1;" parent="1" source="NSTFLsDqyqvBZdLpAje1-1" target="NSTFLsDqyqvBZdLpAje1-13" edge="1">
          <mxGeometry relative="1" as="geometry">
            <mxPoint x="609.0000000000005" y="1028.32" as="targetPoint" />
          </mxGeometry>
        </mxCell>
        <mxCell id="NSTFLsDqyqvBZdLpAje1-15" value="name" style="text;html=1;align=center;verticalAlign=middle;whiteSpace=wrap;rounded=0;fontFamily=Helvetica;fontSize=11;fontColor=default;labelBackgroundColor=default;" parent="1" vertex="1">
          <mxGeometry x="380" y="1000" width="60" height="30" as="geometry" />
        </mxCell>
        <mxCell id="NSTFLsDqyqvBZdLpAje1-16" value="quantity" style="text;html=1;align=center;verticalAlign=middle;whiteSpace=wrap;rounded=0;fontFamily=Helvetica;fontSize=11;fontColor=default;labelBackgroundColor=default;" parent="1" vertex="1">
          <mxGeometry x="430" y="1030" width="60" height="30" as="geometry" />
        </mxCell>
        <mxCell id="NSTFLsDqyqvBZdLpAje1-19" value="measurementUnit" style="text;html=1;align=center;verticalAlign=middle;whiteSpace=wrap;rounded=0;fontFamily=Helvetica;fontSize=11;fontColor=default;labelBackgroundColor=default;" parent="1" vertex="1">
          <mxGeometry x="320" y="960" width="60" height="30" as="geometry" />
        </mxCell>
        <mxCell id="NSTFLsDqyqvBZdLpAje1-23" value="id" style="text;html=1;align=center;verticalAlign=middle;whiteSpace=wrap;rounded=0;fontFamily=Helvetica;fontSize=11;fontColor=default;labelBackgroundColor=default;" parent="1" vertex="1">
          <mxGeometry x="1030" y="880" width="60" height="30" as="geometry" />
        </mxCell>
        <mxCell id="NSTFLsDqyqvBZdLpAje1-25" value="bagType" style="text;html=1;align=center;verticalAlign=middle;whiteSpace=wrap;rounded=0;fontFamily=Helvetica;fontSize=11;fontColor=default;labelBackgroundColor=default;" parent="1" vertex="1">
          <mxGeometry x="940" y="1020" width="60" height="30" as="geometry" />
        </mxCell>
        <mxCell id="NSTFLsDqyqvBZdLpAje1-26" value="size" style="text;html=1;align=center;verticalAlign=middle;whiteSpace=wrap;rounded=0;fontFamily=Helvetica;fontSize=11;fontColor=default;labelBackgroundColor=default;" parent="1" vertex="1">
          <mxGeometry x="1150" y="910" width="60" height="30" as="geometry" />
        </mxCell>
        <mxCell id="NSTFLsDqyqvBZdLpAje1-29" value="tags" style="text;html=1;align=center;verticalAlign=middle;whiteSpace=wrap;rounded=0;fontFamily=Helvetica;fontSize=11;fontColor=default;labelBackgroundColor=default;" parent="1" vertex="1">
          <mxGeometry x="1130" y="940" width="60" height="30" as="geometry" />
        </mxCell>
        <mxCell id="NSTFLsDqyqvBZdLpAje1-31" value="price" style="text;html=1;align=center;verticalAlign=middle;whiteSpace=wrap;rounded=0;fontFamily=Helvetica;fontSize=11;fontColor=default;labelBackgroundColor=default;" parent="1" vertex="1">
          <mxGeometry x="1130" y="970" width="60" height="30" as="geometry" />
        </mxCell>
        <mxCell id="NSTFLsDqyqvBZdLpAje1-33" value="pickupTimeStart" style="text;html=1;align=center;verticalAlign=middle;whiteSpace=wrap;rounded=0;fontFamily=Helvetica;fontSize=11;fontColor=default;labelBackgroundColor=default;" parent="1" vertex="1">
          <mxGeometry x="1110" y="1000" width="60" height="30" as="geometry" />
        </mxCell>
        <mxCell id="NSTFLsDqyqvBZdLpAje1-35" value="pickupTimeEnd" style="text;html=1;align=center;verticalAlign=middle;whiteSpace=wrap;rounded=0;fontFamily=Helvetica;fontSize=11;fontColor=default;labelBackgroundColor=default;" parent="1" vertex="1">
          <mxGeometry x="880" y="970" width="60" height="30" as="geometry" />
        </mxCell>
        <mxCell id="NSTFLsDqyqvBZdLpAje1-45" style="edgeStyle=none;shape=connector;rounded=0;orthogonalLoop=1;jettySize=auto;html=1;entryX=0.5;entryY=0;entryDx=0;entryDy=0;strokeColor=default;align=center;verticalAlign=middle;fontFamily=Helvetica;fontSize=11;fontColor=default;labelBackgroundColor=default;startFill=0;endArrow=oval;endFill=0;exitX=1;exitY=0.25;exitDx=0;exitDy=0;" parent="1" source="Fzd244RGAXzxx7JecsDT-108" target="NSTFLsDqyqvBZdLpAje1-42" edge="1">
          <mxGeometry relative="1" as="geometry">
            <mxPoint x="1870" y="535" as="sourcePoint" />
          </mxGeometry>
        </mxCell>
        <mxCell id="NSTFLsDqyqvBZdLpAje1-41" value="createAt" style="text;html=1;align=center;verticalAlign=middle;whiteSpace=wrap;rounded=0;fontFamily=Helvetica;fontSize=11;fontColor=default;labelBackgroundColor=default;" parent="1" vertex="1">
          <mxGeometry x="1530" y="690" width="60" height="30" as="geometry" />
        </mxCell>
        <mxCell id="NSTFLsDqyqvBZdLpAje1-42" value="canceledAt" style="text;html=1;align=center;verticalAlign=middle;whiteSpace=wrap;rounded=0;fontFamily=Helvetica;fontSize=11;fontColor=default;labelBackgroundColor=default;" parent="1" vertex="1">
          <mxGeometry x="1590" y="710" width="60" height="30" as="geometry" />
        </mxCell>
        <mxCell id="NSTFLsDqyqvBZdLpAje1-47" value="email" style="text;html=1;align=center;verticalAlign=middle;whiteSpace=wrap;rounded=0;fontFamily=Helvetica;fontSize=11;fontColor=default;labelBackgroundColor=default;" parent="1" vertex="1">
          <mxGeometry x="890" y="290" width="60" height="30" as="geometry" />
        </mxCell>
        <mxCell id="NSTFLsDqyqvBZdLpAje1-48" value="id" style="text;html=1;align=center;verticalAlign=middle;whiteSpace=wrap;rounded=0;fontFamily=Helvetica;fontSize=11;fontColor=default;labelBackgroundColor=default;" parent="1" vertex="1">
          <mxGeometry x="1030" y="230" width="60" height="30" as="geometry" />
        </mxCell>
        <mxCell id="NSTFLsDqyqvBZdLpAje1-50" value="password" style="text;html=1;align=center;verticalAlign=middle;whiteSpace=wrap;rounded=0;fontFamily=Helvetica;fontSize=11;fontColor=default;labelBackgroundColor=default;" parent="1" vertex="1">
          <mxGeometry x="940" y="250" width="60" height="30" as="geometry" />
        </mxCell>
        <mxCell id="NSTFLsDqyqvBZdLpAje1-53" value="assignedName" style="text;html=1;align=center;verticalAlign=middle;whiteSpace=wrap;rounded=0;fontFamily=Helvetica;fontSize=11;fontColor=default;labelBackgroundColor=default;" parent="1" vertex="1">
          <mxGeometry x="1100" y="250" width="60" height="30" as="geometry" />
        </mxCell>
        <mxCell id="NSTFLsDqyqvBZdLpAje1-54" value="familyName" style="text;html=1;align=center;verticalAlign=middle;whiteSpace=wrap;rounded=0;fontFamily=Helvetica;fontSize=11;fontColor=default;labelBackgroundColor=default;" parent="1" vertex="1">
          <mxGeometry x="1140" y="290" width="60" height="30" as="geometry" />
        </mxCell>
        <mxCell id="NSTFLsDqyqvBZdLpAje1-61" value="id" style="text;html=1;align=center;verticalAlign=middle;whiteSpace=wrap;rounded=0;fontFamily=Helvetica;fontSize=11;fontColor=default;labelBackgroundColor=default;" parent="1" vertex="1">
          <mxGeometry x="910" y="1240" width="60" height="30" as="geometry" />
        </mxCell>
        <mxCell id="NSTFLsDqyqvBZdLpAje1-68" value="name" style="text;html=1;align=center;verticalAlign=middle;whiteSpace=wrap;rounded=0;fontFamily=Helvetica;fontSize=11;fontColor=default;labelBackgroundColor=default;" parent="1" vertex="1">
          <mxGeometry x="1030" y="1250" width="60" height="30" as="geometry" />
        </mxCell>
        <mxCell id="NSTFLsDqyqvBZdLpAje1-69" value="estType" style="text;html=1;align=center;verticalAlign=middle;whiteSpace=wrap;rounded=0;fontFamily=Helvetica;fontSize=11;fontColor=default;labelBackgroundColor=default;" parent="1" vertex="1">
          <mxGeometry x="1100" y="1240" width="60" height="30" as="geometry" />
        </mxCell>
        <mxCell id="NSTFLsDqyqvBZdLpAje1-77" value="(1,1)" style="text;html=1;align=center;verticalAlign=middle;whiteSpace=wrap;rounded=0;fontFamily=Helvetica;fontSize=11;fontColor=default;labelBackgroundColor=default;" parent="1" vertex="1">
          <mxGeometry x="700" y="925" width="60" height="30" as="geometry" />
        </mxCell>
        <mxCell id="NSTFLsDqyqvBZdLpAje1-78" value="(1,N)" style="text;html=1;align=center;verticalAlign=middle;whiteSpace=wrap;rounded=0;fontFamily=Helvetica;fontSize=11;fontColor=default;labelBackgroundColor=default;" parent="1" vertex="1">
          <mxGeometry x="880" y="925" width="60" height="30" as="geometry" />
        </mxCell>
        <mxCell id="NSTFLsDqyqvBZdLpAje1-81" value="(1,1)" style="text;html=1;align=center;verticalAlign=middle;whiteSpace=wrap;rounded=0;fontFamily=Helvetica;fontSize=11;fontColor=default;labelBackgroundColor=default;" parent="1" vertex="1">
          <mxGeometry x="1020" y="1020" width="60" height="30" as="geometry" />
        </mxCell>
        <mxCell id="NSTFLsDqyqvBZdLpAje1-82" value="(1,N)" style="text;html=1;align=center;verticalAlign=middle;whiteSpace=wrap;rounded=0;fontFamily=Helvetica;fontSize=11;fontColor=default;labelBackgroundColor=default;" parent="1" vertex="1">
          <mxGeometry x="1020" y="1120" width="60" height="30" as="geometry" />
        </mxCell>
        <mxCell id="NSTFLsDqyqvBZdLpAje1-83" value="" style="endArrow=oval;html=1;rounded=0;strokeColor=default;align=center;verticalAlign=middle;fontFamily=Helvetica;fontSize=11;fontColor=default;labelBackgroundColor=default;edgeStyle=none;endFill=0;" parent="1" edge="1">
          <mxGeometry width="50" height="50" relative="1" as="geometry">
            <mxPoint x="1000" y="1010" as="sourcePoint" />
            <mxPoint x="1060" y="1010" as="targetPoint" />
          </mxGeometry>
        </mxCell>
        <mxCell id="NSTFLsDqyqvBZdLpAje1-84" value="" style="endArrow=oval;html=1;rounded=0;strokeColor=default;align=center;verticalAlign=middle;fontFamily=Helvetica;fontSize=11;fontColor=default;labelBackgroundColor=default;edgeStyle=none;endFill=0;" parent="1" edge="1">
          <mxGeometry width="50" height="50" relative="1" as="geometry">
            <mxPoint x="590" y="990" as="sourcePoint" />
            <mxPoint x="590" y="910" as="targetPoint" />
          </mxGeometry>
        </mxCell>
        <mxCell id="Fzd244RGAXzxx7JecsDT-114" style="edgeStyle=none;shape=connector;rounded=0;orthogonalLoop=1;jettySize=auto;html=1;strokeColor=default;align=center;verticalAlign=middle;fontFamily=Helvetica;fontSize=11;fontColor=default;labelBackgroundColor=default;endArrow=oval;endFill=0;" parent="1" source="Fzd244RGAXzxx7JecsDT-108" target="NSTFLsDqyqvBZdLpAje1-41" edge="1">
          <mxGeometry relative="1" as="geometry" />
        </mxCell>
        <mxCell id="Fzd244RGAXzxx7JecsDT-108" value="RESERVATION" style="rounded=0;whiteSpace=wrap;html=1;fontFamily=Helvetica;fontSize=11;fontColor=default;labelBackgroundColor=default;" parent="1" vertex="1">
          <mxGeometry x="1590" y="615" width="120" height="60" as="geometry" />
        </mxCell>
        <mxCell id="Fzd244RGAXzxx7JecsDT-115" value="" style="endArrow=oval;html=1;rounded=0;strokeColor=default;align=center;verticalAlign=middle;fontFamily=Helvetica;fontSize=11;fontColor=default;labelBackgroundColor=default;edgeStyle=none;endFill=0;" parent="1" edge="1">
          <mxGeometry width="50" height="50" relative="1" as="geometry">
            <mxPoint x="1610" y="594" as="sourcePoint" />
            <mxPoint x="1690" y="594" as="targetPoint" />
          </mxGeometry>
        </mxCell>
        <mxCell id="Fzd244RGAXzxx7JecsDT-122" value="(1,1)" style="text;html=1;align=center;verticalAlign=middle;whiteSpace=wrap;rounded=0;fontFamily=Helvetica;fontSize=11;fontColor=default;labelBackgroundColor=default;" parent="1" vertex="1">
          <mxGeometry x="1040" y="520" width="60" height="30" as="geometry" />
        </mxCell>
        <mxCell id="Fzd244RGAXzxx7JecsDT-123" value="(1,N)" style="text;html=1;align=center;verticalAlign=middle;whiteSpace=wrap;rounded=0;fontFamily=Helvetica;fontSize=11;fontColor=default;labelBackgroundColor=default;" parent="1" vertex="1">
          <mxGeometry x="1030" y="370" width="60" height="30" as="geometry" />
        </mxCell>
        <mxCell id="DNdd3FPELaN4UwUQye3--3" value="available" style="text;html=1;align=center;verticalAlign=middle;whiteSpace=wrap;rounded=0;fontFamily=Helvetica;fontSize=11;fontColor=default;labelBackgroundColor=default;" parent="1" vertex="1">
          <mxGeometry x="1090" y="880" width="60" height="30" as="geometry" />
        </mxCell>
        <mxCell id="BkRy5oZixeSH2-onaAZ5-4" style="edgeStyle=orthogonalEdgeStyle;rounded=0;orthogonalLoop=1;jettySize=auto;html=1;entryX=0.5;entryY=0;entryDx=0;entryDy=0;endArrow=none;startFill=0;" parent="1" source="CLd1CUa1n7yr-FQ7ubj--11" target="BkRy5oZixeSH2-onaAZ5-3" edge="1">
          <mxGeometry relative="1" as="geometry" />
        </mxCell>
        <mxCell id="BkRy5oZixeSH2-onaAZ5-7" style="edgeStyle=orthogonalEdgeStyle;rounded=0;orthogonalLoop=1;jettySize=auto;html=1;entryX=0;entryY=0.5;entryDx=0;entryDy=0;endArrow=none;startFill=0;" parent="1" source="CLd1CUa1n7yr-FQ7ubj--11" target="BkRy5oZixeSH2-onaAZ5-6" edge="1">
          <mxGeometry relative="1" as="geometry" />
        </mxCell>
        <mxCell id="BkRy5oZixeSH2-onaAZ5-10" style="rounded=0;orthogonalLoop=1;jettySize=auto;html=1;entryX=0.5;entryY=0;entryDx=0;entryDy=0;endArrow=oval;endFill=1;" parent="1" source="CLd1CUa1n7yr-FQ7ubj--11" target="BkRy5oZixeSH2-onaAZ5-9" edge="1">
          <mxGeometry relative="1" as="geometry" />
        </mxCell>
        <mxCell id="BkRy5oZixeSH2-onaAZ5-12" style="edgeStyle=orthogonalEdgeStyle;rounded=0;orthogonalLoop=1;jettySize=auto;html=1;entryX=0.5;entryY=0;entryDx=0;entryDy=0;endArrow=none;startFill=0;" parent="1" source="CLd1CUa1n7yr-FQ7ubj--11" target="BkRy5oZixeSH2-onaAZ5-11" edge="1">
          <mxGeometry relative="1" as="geometry">
            <Array as="points">
              <mxPoint x="510" y="645" />
            </Array>
          </mxGeometry>
        </mxCell>
        <mxCell id="BkRy5oZixeSH2-onaAZ5-23" style="edgeStyle=orthogonalEdgeStyle;rounded=0;orthogonalLoop=1;jettySize=auto;html=1;endArrow=none;startFill=0;" parent="1" source="CLd1CUa1n7yr-FQ7ubj--11" target="BkRy5oZixeSH2-onaAZ5-21" edge="1">
          <mxGeometry relative="1" as="geometry">
            <Array as="points">
              <mxPoint x="1040" y="590" />
              <mxPoint x="1040" y="590" />
            </Array>
          </mxGeometry>
        </mxCell>
        <mxCell id="CLd1CUa1n7yr-FQ7ubj--11" value="CART ITEM" style="rounded=0;whiteSpace=wrap;html=1;" parent="1" vertex="1">
          <mxGeometry x="970" y="615" width="120" height="60" as="geometry" />
        </mxCell>
        <mxCell id="BkRy5oZixeSH2-onaAZ5-3" value="equivalence" style="rhombus;whiteSpace=wrap;html=1;" parent="1" vertex="1">
          <mxGeometry x="960" y="770" width="140" height="70" as="geometry" />
        </mxCell>
        <mxCell id="BkRy5oZixeSH2-onaAZ5-8" style="edgeStyle=orthogonalEdgeStyle;rounded=0;orthogonalLoop=1;jettySize=auto;html=1;entryX=0;entryY=0.5;entryDx=0;entryDy=0;endArrow=none;startFill=0;" parent="1" source="BkRy5oZixeSH2-onaAZ5-6" target="Fzd244RGAXzxx7JecsDT-108" edge="1">
          <mxGeometry relative="1" as="geometry" />
        </mxCell>
        <mxCell id="BkRy5oZixeSH2-onaAZ5-6" value="composed of" style="rhombus;whiteSpace=wrap;html=1;" parent="1" vertex="1">
          <mxGeometry x="1270" y="610" width="140" height="70" as="geometry" />
        </mxCell>
        <mxCell id="BkRy5oZixeSH2-onaAZ5-9" value="id" style="text;html=1;align=center;verticalAlign=middle;whiteSpace=wrap;rounded=0;fontFamily=Helvetica;fontSize=11;fontColor=default;labelBackgroundColor=default;" parent="1" vertex="1">
          <mxGeometry x="1100" y="675" width="60" height="30" as="geometry" />
        </mxCell>
        <mxCell id="BkRy5oZixeSH2-onaAZ5-13" style="edgeStyle=orthogonalEdgeStyle;rounded=0;orthogonalLoop=1;jettySize=auto;html=1;endArrow=none;startFill=0;exitX=0.5;exitY=1;exitDx=0;exitDy=0;" parent="1" source="BkRy5oZixeSH2-onaAZ5-11" target="NSTFLsDqyqvBZdLpAje1-1" edge="1">
          <mxGeometry relative="1" as="geometry">
            <Array as="points" />
          </mxGeometry>
        </mxCell>
        <mxCell id="BkRy5oZixeSH2-onaAZ5-11" value="removed" style="rhombus;whiteSpace=wrap;html=1;" parent="1" vertex="1">
          <mxGeometry x="440" y="610" width="140" height="70" as="geometry" />
        </mxCell>
        <mxCell id="BkRy5oZixeSH2-onaAZ5-14" value="(0,N)" style="text;html=1;align=center;verticalAlign=middle;whiteSpace=wrap;rounded=0;" parent="1" vertex="1">
          <mxGeometry x="570" y="615" width="60" height="30" as="geometry" />
        </mxCell>
        <mxCell id="BkRy5oZixeSH2-onaAZ5-16" value="(0,N)" style="text;html=1;align=center;verticalAlign=middle;whiteSpace=wrap;rounded=0;" parent="1" vertex="1">
          <mxGeometry x="450" y="675" width="60" height="30" as="geometry" />
        </mxCell>
        <mxCell id="BkRy5oZixeSH2-onaAZ5-17" value="(1,1)" style="text;html=1;align=center;verticalAlign=middle;whiteSpace=wrap;rounded=0;" parent="1" vertex="1">
          <mxGeometry x="1210" y="610" width="60" height="30" as="geometry" />
        </mxCell>
        <mxCell id="BkRy5oZixeSH2-onaAZ5-18" value="(1,1)" style="text;html=1;align=center;verticalAlign=middle;whiteSpace=wrap;rounded=0;" parent="1" vertex="1">
          <mxGeometry x="1410" y="610" width="60" height="30" as="geometry" />
        </mxCell>
        <mxCell id="BkRy5oZixeSH2-onaAZ5-19" value="" style="endArrow=oval;html=1;rounded=0;strokeColor=default;align=center;verticalAlign=middle;fontFamily=Helvetica;fontSize=11;fontColor=default;labelBackgroundColor=default;edgeStyle=none;endFill=0;" parent="1" edge="1">
          <mxGeometry width="50" height="50" relative="1" as="geometry">
            <mxPoint x="1000" y="700" as="sourcePoint" />
            <mxPoint x="1060" y="700" as="targetPoint" />
          </mxGeometry>
        </mxCell>
        <mxCell id="BkRy5oZixeSH2-onaAZ5-24" style="edgeStyle=orthogonalEdgeStyle;rounded=0;orthogonalLoop=1;jettySize=auto;html=1;entryX=0.5;entryY=1;entryDx=0;entryDy=0;endArrow=none;startFill=0;" parent="1" source="BkRy5oZixeSH2-onaAZ5-21" target="NSTFLsDqyqvBZdLpAje1-11" edge="1">
          <mxGeometry relative="1" as="geometry" />
        </mxCell>
        <mxCell id="BkRy5oZixeSH2-onaAZ5-21" value="Cart" style="rhombus;whiteSpace=wrap;html=1;" parent="1" vertex="1">
          <mxGeometry x="970" y="450" width="140" height="70" as="geometry" />
        </mxCell>
        <mxCell id="BkRy5oZixeSH2-onaAZ5-26" value="" style="endArrow=oval;html=1;rounded=0;strokeColor=default;align=center;verticalAlign=middle;fontFamily=Helvetica;fontSize=11;fontColor=default;labelBackgroundColor=default;edgeStyle=none;endFill=0;" parent="1" edge="1">
          <mxGeometry width="50" height="50" relative="1" as="geometry">
            <mxPoint x="1010" y="590" as="sourcePoint" />
            <mxPoint x="1060" y="590" as="targetPoint" />
          </mxGeometry>
        </mxCell>
        <mxCell id="BkRy5oZixeSH2-onaAZ5-28" value="(1,1)" style="text;html=1;align=center;verticalAlign=middle;whiteSpace=wrap;rounded=0;" parent="1" vertex="1">
          <mxGeometry x="1030" y="740" width="60" height="30" as="geometry" />
        </mxCell>
        <mxCell id="BkRy5oZixeSH2-onaAZ5-29" value="(1,N)" style="text;html=1;align=center;verticalAlign=middle;whiteSpace=wrap;rounded=0;fontFamily=Helvetica;fontSize=11;fontColor=default;labelBackgroundColor=default;" parent="1" vertex="1">
          <mxGeometry x="1030" y="840" width="60" height="30" as="geometry" />
        </mxCell>
        <mxCell id="BkRy5oZixeSH2-onaAZ5-30" value="" style="endArrow=oval;html=1;rounded=0;strokeColor=default;align=center;verticalAlign=middle;fontFamily=Helvetica;fontSize=11;fontColor=default;labelBackgroundColor=default;edgeStyle=none;endFill=1;" parent="1" edge="1">
          <mxGeometry width="50" height="50" relative="1" as="geometry">
            <mxPoint x="1510" y="670" as="sourcePoint" />
            <mxPoint x="1510" y="620" as="targetPoint" />
          </mxGeometry>
        </mxCell>
      </root>
    </mxGraphModel>
  </diagram>
</mxfile>
